<svg xmlns="http://www.w3.org/2000/svg" width="129" height="24" fill="none"><path fill="#fff" d="M12.81 7.457c-.085-.86-.45-1.527-1.097-2.003-.646-.476-1.523-.714-2.631-.714-.753 0-1.389.107-1.907.32-.519.206-.916.493-1.193.863-.27.369-.405.788-.405 1.257-.014.39.067.731.245 1.022.184.292.437.544.756.757.32.206.689.387 1.108.543.42.15.867.277 1.342.384l1.96.468c.952.214 1.826.498 2.621.853a7.961 7.961 0 0 1 2.067 1.31 5.447 5.447 0 0 1 1.353 1.832c.327.704.494 1.51.5 2.419-.006 1.335-.347 2.493-1.022 3.473-.668.973-1.633 1.73-2.898 2.269-1.257.533-2.773.799-4.549.799-1.761 0-3.295-.27-4.602-.81-1.3-.54-2.315-1.338-3.047-2.397C.687 19.037.307 17.72.271 16.15h4.464c.05.731.26 1.342.629 1.832.376.483.877.849 1.502 1.098.632.241 1.346.362 2.141.362.781 0 1.46-.114 2.035-.341.582-.227 1.033-.543 1.353-.948.32-.405.48-.87.48-1.396 0-.49-.146-.902-.438-1.236-.284-.334-.703-.618-1.257-.852-.546-.234-1.218-.447-2.013-.64l-2.376-.596c-1.84-.447-3.292-1.147-4.357-2.098C1.369 10.383.839 9.1.847 7.489.839 6.168 1.19 5.013 1.9 4.026c.718-.987 1.701-1.758 2.951-2.312 1.25-.553 2.67-.83 4.262-.83 1.619 0 3.032.277 4.24.83 1.214.554 2.159 1.325 2.834 2.312.674.987 1.022 2.131 1.044 3.43H12.81Zm27.872 4.634c0 2.38-.45 4.403-1.353 6.072-.895 1.67-2.116 2.944-3.664 3.825-1.542.873-3.275 1.31-5.2 1.31-1.938 0-3.678-.44-5.22-1.32-1.54-.881-2.759-2.156-3.654-3.825-.894-1.67-1.342-3.69-1.342-6.062 0-2.38.448-4.403 1.342-6.073.895-1.669 2.113-2.94 3.655-3.813 1.54-.881 3.28-1.321 5.22-1.321 1.924 0 3.657.44 5.199 1.32 1.548.874 2.77 2.145 3.664 3.814.902 1.67 1.353 3.694 1.353 6.073Zm-4.677 0c0-1.541-.23-2.841-.692-3.9-.455-1.057-1.097-1.86-1.928-2.407-.831-.547-1.804-.82-2.92-.82-1.114 0-2.087.273-2.918.82-.831.547-1.478 1.35-1.94 2.408-.454 1.058-.681 2.358-.681 3.899s.227 2.84.682 3.9c.461 1.057 1.108 1.86 1.939 2.407.83.547 1.804.82 2.919.82s2.088-.273 2.919-.82c.83-.547 1.474-1.35 1.928-2.408.462-1.058.692-2.358.692-3.9ZM46.63 23h-4.944l7.532-21.818h5.945L62.684 23h-4.943L52.276 6.168h-.17L46.63 23Zm-.31-8.576h11.677v3.6H46.32v-3.6ZM65.31 1.182H71l6.008 14.659h.255l6.009-14.66h5.689V23h-4.474V8.799h-.182L78.66 22.894h-3.047L69.966 8.745h-.181V23H65.31V1.182ZM92.761 23V1.182h14.702v3.803H97.375v5.199h9.332v3.803h-9.332v5.21h10.131V23H92.761Zm18.37 0V1.182h8.608c1.647 0 3.054.295 4.218.884 1.172.582 2.064 1.41 2.674 2.482.618 1.066.927 2.32.927 3.76 0 1.45-.312 2.696-.937 3.74-.625 1.037-1.531 1.833-2.717 2.387-1.179.554-2.606.83-4.283.83h-5.763v-3.707h5.018c.88 0 1.612-.12 2.194-.362.583-.242 1.016-.604 1.3-1.087.291-.483.437-1.083.437-1.8 0-.724-.146-1.335-.437-1.832-.284-.498-.721-.874-1.31-1.13-.583-.262-1.318-.394-2.206-.394h-3.11V23h-4.613Zm11.782-9.929L128.336 23h-5.092l-5.306-9.929h4.975Z"/></svg>