<svg xmlns="http://www.w3.org/2000/svg" width="25" height="25" fill="none"><path fill="#2B2B2B" d="M24.398 8.829c0 4.46-3.686 8.076-8.232 8.076a8.428 8.428 0 0 1-1.536-.14l-1.123 1.24a1.12 1.12 0 0 1-.839.369h-1.74v1.836c0 .608-.504 1.101-1.123 1.101H7.934v1.836c0 .608-.503 1.101-1.123 1.101H1.572c-.62 0-1.122-.493-1.122-1.101v-3.583c0-.292.118-.572.328-.778l7.569-7.426a7.93 7.93 0 0 1-.413-2.531c0-4.46 3.685-8.077 8.232-8.077 4.56 0 8.232 3.603 8.232 8.077Zm-8.232-2.203c0 1.217 1.005 2.203 2.245 2.203 1.24 0 2.245-.986 2.245-2.203 0-1.217-1.005-2.203-2.245-2.203-1.24 0-2.245.986-2.245 2.203Z"/></svg>